<svg width="482" height="125" viewBox="0 0 482 125" fill="none" xmlns="http://www.w3.org/2000/svg">
<path d="M69.2758 42.1702L175.448 125H0L69.2758 42.1702Z" fill="#CCDEE6"/>
<path d="M128.035 87.6975L108.402 85.9076L112.926 94.9935L88.3446 81.7692L95.9304 104.669L70.9992 77.5611L65.0722 90.3621L52.6184 75.8534L31.5906 87.0852L69.2758 42.1702L128.035 87.6975Z" fill="white"/>
<path fill-rule="evenodd" clip-rule="evenodd" d="M112.573 42.9232C111.037 42.9232 109.604 42.4854 108.39 41.7277C108.052 44.524 105.671 46.6898 102.783 46.6898C99.9744 46.6898 97.6441 44.6382 97.2095 41.9506C96.8358 42.0925 96.4306 42.1702 96.0073 42.1702C94.1365 42.1702 92.6188 40.6525 92.6188 38.7817C92.6188 38.0773 92.834 37.4228 93.2023 36.8807C89.0907 36.6002 85.8418 33.1754 85.8418 28.9928C85.8418 24.6266 89.3821 21.0863 93.7483 21.0863C96.5897 21.0863 99.0814 22.5857 100.475 24.8364C101.254 22.6503 103.343 21.0863 105.797 21.0863C108.915 21.0863 111.444 23.6135 111.444 26.733C111.444 26.8879 111.437 27.0413 111.425 27.193C111.8 27.1385 112.183 27.1103 112.573 27.1103C116.94 27.1103 120.48 30.6496 120.48 35.0168C120.48 39.3839 116.94 42.9232 112.573 42.9232Z" fill="white"/>
<path fill-rule="evenodd" clip-rule="evenodd" d="M245.477 7.90809C245.477 3.54209 241.938 0.00238037 237.57 0.00238037C234.378 0.00238037 231.628 1.89407 230.38 4.61737C228.74 3.59959 226.821 3.01437 224.771 3.01437C218.741 3.01437 213.851 8.07261 213.851 14.3101C213.851 20.5477 218.741 25.6043 224.771 25.6043C227.836 25.6043 230.606 24.2977 232.588 22.1936C233.623 23.3619 235.134 24.0983 236.817 24.0983C239.937 24.0983 242.465 21.5696 242.465 18.4508C242.465 17.1148 242.002 15.8876 241.227 14.9209C243.753 13.6011 245.477 10.9562 245.477 7.90809Z" fill="white"/>
<path d="M16 125H318.297C318.297 125 300.573 120.557 254.022 113.211C207.47 105.864 185.293 93 137.522 93C89.7502 93 16 125 16 125Z" fill="#9BD0B0"/>
<path d="M177.694 125H482C482 125 444.841 80.9622 354.453 64.0246C264.065 47.087 177.694 125 177.694 125Z" fill="#6AB889"/>
<path d="M227.53 93.1319H229.789L230.542 109.698H226.777L227.53 93.1319Z" fill="#4F4F4F"/>
<path d="M230.241 63.4529L235.971 101.766C236.12 102.761 235.684 103.742 234.999 103.958C234.91 103.986 234.82 104 234.729 104H223.27C222.569 104 222 103.175 222 102.157C222 102.025 222.01 101.894 222.029 101.766L227.758 63.4529C227.907 62.458 228.584 61.8264 229.269 62.0423C229.756 62.1955 230.136 62.7469 230.241 63.4529Z" fill="#117938"/>
<path d="M132.304 98.6667H132.696L132.826 101H132.174L132.304 98.6667Z" fill="#4F4F4F"/>
<path d="M132.766 94.9886L133.994 99.3424C134.026 99.4554 133.932 99.5669 133.785 99.5915C133.766 99.5946 133.747 99.5962 133.728 99.5962H131.272C131.122 99.5962 131 99.5025 131 99.3868C131 99.3718 131.002 99.3569 131.006 99.3424L132.234 94.9886C132.266 94.8756 132.411 94.8038 132.558 94.8283C132.662 94.8457 132.743 94.9084 132.766 94.9886Z" fill="#117938"/>
<path d="M166.304 106.667H166.696L166.826 109H166.174L166.304 106.667Z" fill="#4F4F4F"/>
<path d="M166.766 102.989L167.994 107.342C168.026 107.455 167.932 107.567 167.785 107.591C167.766 107.595 167.747 107.596 167.728 107.596H165.272C165.122 107.596 165 107.502 165 107.387C165 107.372 165.002 107.357 165.006 107.342L166.234 102.989C166.266 102.876 166.411 102.804 166.558 102.828C166.662 102.846 166.743 102.908 166.766 102.989Z" fill="#117938"/>
<path d="M455.53 101.132H457.789L458.542 117.698H454.777L455.53 101.132Z" fill="#4F4F4F"/>
<path d="M458.195 69.1722L465.283 100.082C465.467 100.885 464.928 101.677 464.08 101.851C463.971 101.874 463.859 101.885 463.747 101.885H449.572C448.704 101.885 448 101.219 448 100.398C448 100.292 448.012 100.186 448.036 100.082L455.123 69.1722C455.307 68.3695 456.144 67.86 456.993 68.0341C457.594 68.1577 458.065 68.6026 458.195 69.1722Z" fill="#117938"/>
<path d="M198.53 104.132H200.789L201.542 120.698H197.777L198.53 104.132Z" fill="#4F4F4F"/>
<path d="M201.007 51.2485L207.965 110.542C208.145 112.082 207.617 113.601 206.784 113.935C206.677 113.978 206.567 114 206.457 114H192.543C191.691 114 191 112.723 191 111.147C191 110.944 191.012 110.741 191.035 110.542L197.992 51.2485C198.173 49.7088 198.994 48.7314 199.827 49.0655C200.418 49.3025 200.879 50.1559 201.007 51.2485Z" fill="#117938"/>
<path d="M383.609 83.6667H387.391L388.652 111H382.348L383.609 83.6667Z" fill="#4F4F4F"/>
<path d="M388.072 30.934L399.94 81.9349C400.248 83.2593 399.346 84.5659 397.926 84.8533C397.742 84.8904 397.555 84.9091 397.368 84.9091H373.632C372.178 84.9091 371 83.8105 371 82.4552C371 82.2803 371.02 82.1059 371.06 81.9349L382.928 30.934C383.236 29.6096 384.637 28.7689 386.058 29.0563C387.066 29.2602 387.853 29.9943 388.072 30.934Z" fill="#117938"/>
<path d="M419.53 80.1319H421.789L422.542 96.6978H418.777L419.53 80.1319Z" fill="#4F4F4F"/>
<path d="M422.195 56.1722L429.283 87.0823C429.467 87.885 428.928 88.6769 428.08 88.8511C427.971 88.8736 427.859 88.8849 427.747 88.8849H413.572C412.704 88.8849 412 88.219 412 87.3977C412 87.2917 412.012 87.1859 412.036 87.0823L419.123 56.1722C419.307 55.3695 420.144 54.86 420.993 55.0341C421.594 55.1577 422.065 55.6026 422.195 56.1722Z" fill="#117938"/>
<path d="M59.7826 114H61.2174L61.6956 121H59.3043L59.7826 114Z" fill="#4F4F4F"/>
<path d="M61.4754 102.495L65.9771 115.557C66.094 115.896 65.752 116.23 65.2132 116.304C65.1437 116.313 65.0727 116.318 65.0016 116.318H55.9982C55.4469 116.318 55 116.037 55 115.69C55 115.645 55.0076 115.6 55.0227 115.557L59.5244 102.495C59.6413 102.156 60.1728 101.941 60.7116 102.014C61.0939 102.067 61.3925 102.255 61.4754 102.495Z" fill="#117938"/>
<path d="M96.299 99.3981H97.183L97.4777 106.175H96.0044L96.299 99.3981Z" fill="#4F4F4F"/>
<path d="M97.342 90.4795L100.115 103.125C100.187 103.453 99.9767 103.777 99.6448 103.848C99.602 103.857 99.5582 103.862 99.5144 103.862H93.9675C93.6279 103.862 93.3525 103.59 93.3525 103.254C93.3525 103.21 93.3572 103.167 93.3665 103.125L96.14 90.4795C96.212 90.1511 96.5394 89.9427 96.8714 90.014C97.1069 90.0645 97.2909 90.2465 97.342 90.4795Z" fill="#117938"/>
<path d="M123.043 102.667H123.957L124.261 113H122.739L123.043 102.667Z" fill="#4F4F4F"/>
<path d="M124.121 89.7312L126.985 109.012C127.06 109.513 126.842 110.007 126.499 110.115C126.455 110.129 126.41 110.136 126.365 110.136H120.635C120.284 110.136 120 109.721 120 109.209C120 109.143 120.005 109.077 120.014 109.012L122.879 89.7312C122.954 89.2305 123.292 88.9126 123.635 89.0213C123.878 89.0984 124.068 89.3759 124.121 89.7312Z" fill="#117938"/>
<path d="M140.783 110H142.217L142.696 117H140.304L140.783 110Z" fill="#4F4F4F"/>
<path d="M142.475 87.934L146.977 112.564C147.094 113.203 146.752 113.834 146.213 113.973C146.144 113.991 146.073 114 146.002 114H136.998C136.447 114 136 113.469 136 112.815C136 112.73 136.008 112.646 136.023 112.564L140.524 87.934C140.641 87.2944 141.173 86.8884 141.712 87.0272C142.094 87.1257 142.392 87.4802 142.475 87.934Z" fill="#117938"/>
<path d="M106.609 113.667H107.391L107.652 118H106.348L106.609 113.667Z" fill="#4F4F4F"/>
<path d="M107.532 97.5881L109.988 113.096C110.051 113.498 109.865 113.896 109.571 113.983C109.533 113.994 109.494 114 109.455 114H104.544C104.244 114 104 113.666 104 113.254C104 113.201 104.004 113.148 104.012 113.096L106.468 97.5881C106.532 97.1854 106.822 96.9297 107.115 97.0171C107.324 97.0791 107.487 97.3023 107.532 97.5881Z" fill="#117938"/>
<path d="M73.6086 103.333H74.3913L74.6521 109H73.3478L73.6086 103.333Z" fill="#4F4F4F"/>
<path d="M74.532 94.401L76.9875 104.974C77.0513 105.249 76.8647 105.52 76.5709 105.579C76.5329 105.587 76.4942 105.591 76.4554 105.591H71.5445C71.2438 105.591 71 105.363 71 105.082C71 105.046 71.0042 105.01 71.0124 104.974L73.4678 94.401C73.5316 94.1264 73.8215 93.9521 74.1154 94.0117C74.3239 94.0539 74.4868 94.2061 74.532 94.401Z" fill="#117938"/>
<path d="M114.304 97.6667H114.696L114.826 100H114.174L114.304 97.6667Z" fill="#4F4F4F"/>
<path d="M114.766 93.9886L115.994 98.3424C116.026 98.4554 115.932 98.5669 115.785 98.5915C115.766 98.5946 115.747 98.5962 115.728 98.5962H113.272C113.122 98.5962 113 98.5025 113 98.3868C113 98.3718 113.002 98.3569 113.006 98.3424L114.234 93.9886C114.266 93.8756 114.411 93.8038 114.558 93.8283C114.662 93.8457 114.743 93.9084 114.766 93.9886Z" fill="#117938"/>
<path d="M152.304 102.667H152.696L152.826 105H152.174L152.304 102.667Z" fill="#4F4F4F"/>
<path d="M152.766 98.9886L153.994 103.342C154.026 103.455 153.932 103.567 153.785 103.591C153.766 103.595 153.747 103.596 153.728 103.596H151.272C151.122 103.596 151 103.502 151 103.387C151 103.372 151.002 103.357 151.006 103.342L152.234 98.9886C152.266 98.8756 152.411 98.8038 152.558 98.8283C152.662 98.8457 152.743 98.9084 152.766 98.9886Z" fill="#117938"/>
<path d="M83.3479 110.333H84.6522L85.087 116H82.9131L83.3479 110.333Z" fill="#4F4F4F"/>
<path d="M84.8867 99.401L88.9792 109.974C89.0854 110.249 88.7746 110.52 88.2848 110.579C88.2215 110.587 88.157 110.591 88.0923 110.591H79.9075C79.4063 110.591 79 110.363 79 110.082C79 110.046 79.0069 110.01 79.0206 109.974L83.1131 99.401C83.2193 99.1264 83.7025 98.9521 84.1923 99.0117C84.5399 99.0539 84.8113 99.2061 84.8867 99.401Z" fill="#117938"/>
<path fill-rule="evenodd" clip-rule="evenodd" d="M317.952 68.1635C317.952 77.5507 321.833 82.9236 326.373 85.1582V86.4396L329.722 104.35H341.874L344.722 86.4396V83.8788C345.215 83.5417 345.692 83.1596 346.154 82.7268C348.258 80.7528 349.61 78.2932 350.442 75.4368C351.625 75.1254 353.132 74.287 354.273 72.0295C355.181 70.2339 355.181 69.3361 355.181 68.4382C355.181 67.5404 354.506 66.3115 353.365 65.7448C353.1 65.6129 352.81 65.4936 352.522 65.3884C352.522 65.361 352.522 65.3333 352.522 65.3055L352.522 64.8689C352.524 60.2364 352.525 55.9538 350.852 52.447C348.209 46.9063 342.628 43.2997 335.918 43.2997C327.41 43.2997 322.255 48.1895 319.772 55.2195C318.417 59.0543 317.952 62.5548 317.952 68.1635Z" fill="#F1F1F1"/>
<path d="M336.113 107.044L341.736 97.617L346.101 88.19C346.101 88.19 341.107 91.7813 336.113 91.7813C331.119 91.7813 326.124 88.19 326.124 88.19L330.633 97.617L336.113 107.044Z" fill="#262626"/>
<path fill-rule="evenodd" clip-rule="evenodd" d="M345.192 85.4966C345.094 88.4233 336.113 100.759 336.113 100.759C336.113 100.759 327.131 88.4233 327.033 85.4966H327.032C326.656 85.4966 321.315 87.5082 317.253 91.5418C314.102 94.6712 311.596 99.3751 311.596 103.024V125H349.733C355.751 125 360.629 120.176 360.629 114.226V103.024C360.629 99.3678 358.07 94.6558 354.86 91.5228C350.738 87.4991 345.661 85.4966 345.193 85.4966H345.192Z" fill="#117938"/>
<path d="M351.095 125C351.095 125 356.781 118.844 353.322 114.739C349.863 110.635 345.539 107.557 345.539 104.479C345.539 101.401 343.809 96.2703 342.08 96.2703C340.35 96.2703 339.485 96.2703 337.756 101.401C336.026 106.531 334.297 109.609 334.297 109.609C334.297 109.609 342.08 116.792 342.08 119.87C342.08 122.948 340.35 125 340.35 125H351.095Z" fill="#285835"/>
<path d="M319.399 125H333.389V124.017V113.202C333.389 113.202 332.269 112.219 331.15 110.252C330.031 108.286 323.876 93.5385 319.399 94.5217C314.923 95.5048 314.923 97.4712 315.482 100.421C316.042 103.37 323.316 106.32 323.316 109.269C323.316 112.219 322.757 119.101 321.078 121.067C319.399 123.034 319.399 125 319.399 125Z" fill="#FFBD66"/>
<path d="M324.762 86.3944C327.626 92.9783 328.234 97.4674 329.952 99.8615C331.67 102.256 332.816 103.453 333.389 103.453V116.92C332.816 115.723 331.384 114.226 329.093 112.431C325.657 109.737 327.375 104.351 323.939 99.8615C321.791 97.0552 318.887 95.0384 315.228 93.811C317.044 91.3324 318.86 89.9857 322.038 87.7411L324.762 86.3944Z" fill="#285835"/>
<path d="M333.389 111.433V125C333.389 125 339.827 112.564 345.193 110.303C350.559 108.041 356.997 105.78 356.997 102.389C356.997 98.9969 355.924 94.4747 350.559 94.4747C345.193 94.4747 344.12 96.7358 340.9 101.258C337.681 105.78 333.389 111.433 333.389 111.433Z" fill="#B5BD33"/>
<path d="M350.641 88.19C350.641 88.19 350.838 93.3255 348.47 95.0493C346.101 96.773 346.101 100.221 346.101 101.083C346.101 101.944 348.47 106.254 348.47 106.254L349.259 108.84C349.259 108.84 350.049 104.53 352.418 102.806C354.786 101.083 355.576 99.3779 355.576 99.3779C355.576 99.3779 357.945 95.9303 356.366 93.3446C354.786 90.759 350.641 88.19 350.641 88.19Z" fill="#FFBD66"/>
<path d="M334.448 124.557C334.448 124.802 334.211 125 333.918 125C333.626 125 333.389 124.802 333.389 124.557V104.351C333.389 104.95 339.745 96.2616 339.745 96.2616L340.653 97.1681L334.448 105.248V124.557Z" fill="#285835"/>
<path d="M327.032 84.5988C327.032 84.5988 327.583 87.5112 329.756 91.1201C331.93 94.7289 335.659 100.31 335.659 100.31L331.573 95.7755L327.032 98.9637L323.616 87.7521C323.488 87.3315 323.649 86.8766 324.014 86.6311L327.032 84.5988Z" fill="#B5BD33"/>
<path d="M345.193 84.5988C345.193 84.5988 344.285 87.1426 341.561 91.3822C338.837 95.6219 336.113 100.759 336.113 100.759L340.653 97.617L344.285 99.8615L348.569 87.8606C348.72 87.4365 348.569 86.9636 348.201 86.7053L345.193 84.5988Z" fill="#285835"/>
<rect x="318.86" y="106.146" width="10.8963" height="5.38683" fill="#B5BD33"/>
<rect x="341.561" y="106.146" width="10.8963" height="5.38683" fill="#117938"/>
<rect x="318.86" y="111.533" width="10.8963" height="7.18244" fill="#285835"/>
<rect x="341.561" y="111.533" width="10.8963" height="7.18244" fill="#FFBD66"/>
<path fill-rule="evenodd" clip-rule="evenodd" d="M318.062 65.7704C318.062 65.7127 318.376 61.9847 318.858 60.3585C319.765 57.2987 321.578 55.7691 321.578 55.8694C321.578 55.8694 320.741 60.7245 321.332 59.9335C324.682 55.4675 333.247 59.4181 336.466 53.6545C336.871 56.8274 332.809 57.7843 332.809 57.7843C336.047 58.4041 338.852 57.0869 339.613 55.5228C339.863 56.798 339.963 57.6443 338.838 58.5165C342.817 57.7558 342.013 54.9877 342.013 54.9877C345.155 55.4146 348.148 59.6546 348.465 63.3767C348.782 67.0988 350.596 68.4387 350.596 68.4387C352.202 66.8344 354.223 66.6431 354.223 66.6431C354.223 66.6431 355.13 63.9497 355.13 62.1541C355.13 57.7843 355.507 54.6543 354.223 50.9251C351.502 43.0265 344.248 37.9504 336.912 37.9133C323.392 37.845 317.044 46.8688 317.044 59.4607C317.044 63.0519 318.062 65.8605 318.062 65.7704Z" fill="#FFA733"/>
<path d="M334.233 76.0714C334.209 76.1285 334.148 76.2452 334.045 76.4014C333.868 76.6686 333.639 76.937 333.353 77.1873C332.344 78.0695 330.909 78.5118 328.925 78.2699C327.94 78.1502 327.245 77.7204 326.768 77.0653C326.566 76.7872 326.417 76.4865 326.315 76.1856C326.255 76.0074 326.225 75.8728 326.215 75.8051C326.18 75.5648 325.93 75.3945 325.655 75.4247C325.381 75.4549 325.186 75.6742 325.22 75.9144C325.281 76.3333 325.483 76.9322 325.922 77.5361C326.549 78.3975 327.493 78.9812 328.787 79.1384C331.088 79.4189 332.834 78.8806 334.061 77.8076C334.666 77.2789 335.017 76.7473 335.174 76.3734C335.269 76.1461 335.136 75.8942 334.876 75.8108C334.616 75.7274 334.328 75.8441 334.233 76.0714Z" fill="#262626"/>
<path fill-rule="evenodd" clip-rule="evenodd" d="M323.293 66.8509C324.423 67.2024 325.24 65.2296 325.216 63.8214C325.212 63.5542 325.108 62.3218 324.431 62.1775C323.755 62.0321 323.305 62.5968 323.237 62.6969C322.424 63.8901 322.057 66.4649 323.293 66.8509" fill="#262626"/>
<path fill-rule="evenodd" clip-rule="evenodd" d="M336.044 63.6819C335.993 63.4201 335.673 62.2224 334.942 62.1584C334.211 62.0944 333.838 62.7005 333.785 62.8062C333.143 64.0717 333.201 66.6406 334.558 66.8763C335.797 67.0916 336.311 65.0599 336.044 63.6819Z" fill="#262626"/>
<path d="M326.891 67.6562C326.783 67.7553 326.669 67.8404 326.55 67.9119C326.086 68.1903 325.604 68.2418 325.161 68.1666C325.097 68.1557 325.043 68.1436 325.06 68.1451C324.369 68.0463 323.902 68.1223 323.731 68.3376C323.058 69.1832 323.273 70.0788 324.427 70.8147C325.034 71.2009 325.87 71.3369 326.312 71.1366C326.528 71.0386 326.781 71.1387 326.877 71.36C326.972 71.5814 326.875 71.8403 326.658 71.9382C325.927 72.2693 324.803 72.0864 323.975 71.559C322.406 70.559 322.047 69.0652 323.067 67.7839C323.485 67.2583 324.217 67.1393 325.179 67.2769C325.247 67.2913 325.271 67.2967 325.301 67.3018C325.564 67.3464 325.85 67.3157 326.117 67.1555C326.187 67.1139 326.253 67.0639 326.318 67.0046C326.494 66.8427 326.764 66.8572 326.923 67.0372C327.081 67.2171 327.067 67.4942 326.891 67.6562Z" fill="#262626"/>
<path fill-rule="evenodd" clip-rule="evenodd" d="M325.7 73.5263C326.985 73.1408 327.443 73.0035 329.486 73.0035C331.159 73.0035 332.226 73.339 333.632 73.7814C334.439 74.035 335.357 74.3238 336.565 74.6046C347.676 76.9513 350.161 70.2904 351.112 67.7434C351.3 67.2387 351.428 66.8955 351.551 66.816C352.164 66.816 352.485 67.7017 352.455 68.4396C352.164 75.6407 348.825 82.8032 343.377 85.4966C342.79 85.7372 342.265 85.9612 341.778 86.1689C338.578 87.5332 337.037 88.19 330.761 88.19C327.146 88.19 322.806 84.2599 320.818 81.0076C318.575 77.3387 317.536 72.7546 318.106 65.7449C318.141 65.9346 318.179 66.1526 318.22 66.3926C318.708 69.239 319.727 75.1837 324.322 73.925C324.889 73.7696 325.329 73.6376 325.7 73.5263ZM329.186 74.7229C325.55 74.7229 323.4 75.785 323.4 77.3989C323.4 79.0128 325.55 81.8765 329.186 81.8765C333.878 82.2035 337.021 79.6752 337.021 78.0853C337.021 76.4955 332.822 74.7229 329.186 74.7229Z" fill="#FFA733"/>
<path fill-rule="evenodd" clip-rule="evenodd" d="M293.267 76.0412C291.709 81.0394 288.659 85.1882 284.751 87.7272L284.951 89.953L284.95 90.0435L282.838 108.391H269.439L269.383 108.005L266.793 90.0119L266.889 87.7615C262.961 85.2292 259.894 81.0736 258.328 76.0622C258.275 76.0671 258.221 76.0696 258.166 76.0696C257.153 76.0696 256.35 75.194 256.35 74.1333V68.131C256.35 67.4199 256.711 66.7918 257.254 66.4548C258.101 55.2491 266.06 46.4421 275.794 46.4421C285.501 46.4421 293.444 55.2016 294.327 66.3639C294.961 66.6687 295.395 67.3496 295.395 68.131V74.1333C295.395 75.1946 294.594 76.0696 293.579 76.0696C293.473 76.0696 293.368 76.0599 293.267 76.0412Z" fill="#F1F1F1"/>
<path fill-rule="evenodd" clip-rule="evenodd" d="M284.279 88.3483C284.203 92.3549 280.469 96.4654 275.873 96.4654C271.257 96.4654 267.51 92.3191 267.466 88.296C265.074 88.8953 261.423 90.7029 258.41 93.7238C255.492 96.6491 253.172 101.046 253.172 104.457V125H298.574V104.457C298.574 101.039 296.203 96.6347 293.232 93.706C290.26 90.7774 286.686 88.9942 284.279 88.3483Z" fill="#0C5472"/>
<path fill-rule="evenodd" clip-rule="evenodd" d="M253.173 104.349L253.172 67.3313C253.172 53.5634 263.21 42.4019 275.596 42.4019C287.979 42.4019 298.574 51.977 298.574 65.7448V67.3313C298.574 67.3313 298.666 83.1695 289.691 90.8893C287.712 89.9856 285.614 88.9487 284.364 88.4842L284.279 87.5428L284.325 87.4648C288.344 84.9221 291.464 80.6385 292.967 75.4625C293.151 75.5637 293.359 75.6207 293.579 75.6207C294.332 75.6207 294.941 74.9563 294.941 74.1333V68.1309C294.941 67.8125 294.85 67.5176 294.695 67.2758C294.436 67.0049 294.075 66.8366 293.675 66.8358C293.493 66.8358 293.319 66.8741 293.159 66.9378C274.834 69.0853 268.443 56.7676 267.903 56.7668C267.903 56.7668 260.238 63.8599 258.958 66.4637C258.958 66.4637 258.869 66.9647 258.754 66.8823C258.593 66.8178 258.421 66.7795 258.237 66.7786C257.448 66.7778 256.806 67.4333 256.804 68.243C256.804 68.2033 256.804 68.1637 256.804 68.1241L256.804 68.1309V74.1333C256.804 74.9563 257.415 75.6207 258.166 75.6207C258.333 75.6207 258.492 75.5882 258.64 75.5287C260.16 80.7072 263.299 84.9862 267.338 87.5121L267.353 87.5428L267.315 88.435C262.582 90.1341 253.271 97.5184 253.173 104.349Z" fill="#88392B"/>
<path fill-rule="evenodd" clip-rule="evenodd" d="M269.381 71.016C268.208 71.1098 267.879 69.273 268.233 68.0734C268.299 67.8461 268.688 66.811 269.375 66.811C270.062 66.811 270.365 67.3768 270.407 67.4741C270.913 68.6435 270.664 70.9126 269.381 71.016" fill="#262626"/>
<path fill-rule="evenodd" clip-rule="evenodd" d="M282.989 71.016C284.162 71.1098 284.491 69.273 284.137 68.0734C284.071 67.8461 283.682 66.811 282.995 66.811C282.308 66.811 282.005 67.3768 281.963 67.4741C281.457 68.6435 281.706 70.9126 282.989 71.016" fill="#262626"/>
<path d="M276.62 72.8262C277.322 72.7074 277.801 72.7819 277.972 73.0136C278.62 73.8895 278.413 74.8161 277.302 75.5767C276.717 75.9765 275.913 76.1172 275.487 75.9099C275.279 75.8085 275.036 75.9121 274.943 76.1411C274.851 76.3702 274.945 76.638 275.154 76.7394C275.857 77.082 276.94 76.8927 277.737 76.347C279.247 75.3133 279.593 73.7676 278.612 72.4409C278.197 71.8803 277.462 71.7659 276.494 71.9297C276.269 71.9678 276.115 72.1994 276.15 72.4469C276.184 72.6945 276.395 72.8643 276.62 72.8262Z" fill="#262626"/>
<path d="M281.694 78.8455C281.653 78.9318 281.558 79.0971 281.406 79.3148C281.149 79.6834 280.826 80.053 280.434 80.3976C279.266 81.4245 277.745 82.0182 275.81 81.9639C273.922 81.911 272.408 81.3264 271.221 80.3836C270.785 80.0375 270.425 79.6668 270.138 79.2973C269.968 79.0794 269.862 78.9142 269.816 78.8281C269.705 78.6211 269.431 78.5358 269.204 78.6377C268.978 78.7396 268.885 78.9901 268.996 79.1972C269.063 79.3219 269.194 79.5256 269.394 79.7821C269.721 80.2031 270.129 80.623 270.622 81.0147C271.962 82.0789 273.675 82.7402 275.781 82.7993C277.976 82.8609 279.73 82.176 281.067 81.0002C281.515 80.6071 281.882 80.1862 282.177 79.7644C282.356 79.5079 282.472 79.3043 282.531 79.1799C282.632 78.9683 282.527 78.722 282.295 78.6297C282.064 78.5373 281.795 78.6339 281.694 78.8455Z" fill="#262626"/>
<path fill-rule="evenodd" clip-rule="evenodd" d="M280.05 38.8107L277.689 38.8107C277.689 37.8191 276.876 37.0151 275.873 37.0151C274.87 37.0151 274.057 37.8191 274.057 38.8107L271.696 38.8107C261.892 38.8107 255.124 50.4822 255.124 55.869C255.071 57.8808 255.038 59.2664 255.018 60.213C254.982 60.2184 254.948 60.2236 254.914 60.2286C254.43 60.3013 254.08 60.7172 254.08 61.2068V62.0515C254.08 62.6038 254.528 63.0515 255.08 63.0515H296.665C297.218 63.0515 297.665 62.6038 297.665 62.0515V61.2068C297.665 60.7172 297.316 60.3013 296.832 60.2286C296.799 60.2238 296.766 60.2188 296.732 60.2137C296.713 59.2093 296.679 57.7843 296.621 55.869C296.621 50.4822 289.854 38.8107 280.05 38.8107Z" fill="#669DB4"/>
<path d="M257.712 62.2768C257.712 62.2768 264.976 60.358 275.873 60.358C286.769 60.358 294.033 62.2768 294.033 62.2768C294.033 64.7215 292.88 67.5405 288.462 67.5405C284.045 67.5405 280.761 65.6347 275.873 65.6347C270.973 65.6347 267.701 67.5405 263.26 67.53C258.82 67.5196 257.712 64.7161 257.712 62.2768Z" fill="#0C5472"/>
<path d="M275.873 56.7669C279.383 56.7669 282.229 54.7571 282.229 52.2778C282.229 49.7986 279.383 47.7888 275.873 47.7888C272.362 47.7888 269.517 49.7986 269.517 52.2778C269.517 54.7571 272.362 56.7669 275.873 56.7669Z" fill="#99BDCD"/>
</svg>
